<svg xmlns="http://www.w3.org/2000/svg" width="1152" height="434" viewBox="0 0 1152 434">
<defs><marker id="arrow" markerWidth="8" markerHeight="8" refX="7" refY="4" orient="auto-start-reverse"><path d="M0 0L8 4L0 8" fill="#a86a49"/></marker></defs>
<g stroke="#a86a49" stroke-width="2" fill="none" marker-end="url(#arrow)"><path d="M180 126V175"/><path d="M576 126V175"/><path d="M972 126V175"/><path d="M180 247V305"/><path d="M576 247V305"/><path d="M972 305V247" stroke-dasharray="5 5"/></g>
<g stroke="#c7cebc" fill="#fffdf7"><rect x="1" y="1" width="358" height="124" rx="5"/><rect x="397" y="1" width="358" height="124" rx="5"/><rect x="793" y="1" width="358" height="124" rx="5"/><rect x="1" y="306" width="358" height="127" rx="5"/><rect x="397" y="306" width="358" height="127" rx="5"/><rect x="793" y="306" width="358" height="127" rx="5"/></g>
<rect x="1" y="176" width="1150" height="70" rx="5" fill="#2d4633"/>
<g font-family="Arial,sans-serif"><g font-size="29" fill="#283b2d"><text x="24" y="43">VISKO / Orbis</text><text x="420" y="43">OpenAI</text><text x="816" y="43">Exa</text><text x="24" y="350">Neo4j</text><text x="420" y="350">Ambiguous</text><text x="816" y="350">Qoder</text></g>
<g font-size="18" fill="#67715f"><text x="24" y="77">Live room video + prompt steering</text><text x="24" y="104">Streamed through Reactor</text><text x="420" y="77">Voice → text · frame → item</text><text x="420" y="104">Colors, material, readable brands</text><text x="816" y="77">Real Amazon product discovery</text><text x="816" y="104">4 results · prices · cached searches</text><text x="24" y="384">Room + product relationships</text><text x="24" y="411">Budget, keep constraints, ranking</text><text x="420" y="384">Read workspace context</text><text x="420" y="411">Approved design brief + shopping list</text><text x="816" y="384">Development &amp; verification</text><text x="816" y="411">Authored 5 passing journey tests</text></g>
<text x="24" y="220" fill="#f5f2e8" font-size="24" letter-spacing="3">SHOWROOM</text><text x="282" y="218" fill="#d5dfcb" font-size="20">React workspace + FastAPI · persistent room state · approval controls</text>
</g></svg>
